<?xml version="1.0" encoding="UTF-8" standalone="no"?>
<svg
   xmlns:dc="http://purl.org/dc/elements/1.1/"
   xmlns:cc="http://creativecommons.org/ns#"
   xmlns:rdf="http://www.w3.org/1999/02/22-rdf-syntax-ns#"
   xmlns:svg="http://www.w3.org/2000/svg"
   xmlns="http://www.w3.org/2000/svg"
   id="svg8"
   version="1.1"
   viewBox="0 0 154.11724 154.23094"
   height="154.23094mm"
   width="154.11723mm">
  <defs
     id="defs2" />
  <metadata
     id="metadata5">
    <rdf:RDF>
      <cc:Work
         rdf:about="">
        <dc:format>image/svg+xml</dc:format>
        <dc:type
           rdf:resource="http://purl.org/dc/dcmitype/StillImage" />
        <dc:title></dc:title>
      </cc:Work>
    </rdf:RDF>
  </metadata>
  <g
     transform="translate(-24.613919,-21.137789)"
     id="layer1">
    <path
       id="path1052"
       d="M 99.317431,162.72339 C 88.016578,140.3771 61.810766,87.835738 61.194306,86.288392 c -1.473358,-3.698198 -2.723284,-8.706186 -2.972424,-11.90939 -0.191843,-2.466537 -0.190753,-8.24132 0.002,-10.567482 0.550755,-6.64675 3.78242,-15.271257 8.055738,-21.498759 2.818734,-4.107737 6.754519,-8.155782 10.916622,-11.227996 4.117239,-3.039099 8.048724,-5.066438 13.063601,-6.736479 4.640185,-1.545262 8.642926,-2.269649 13.441967,-2.432629 11.24131,-0.381766 22.28198,3.339333 31.19331,10.513258 2.05584,1.655027 5.45343,5.055835 7.0757,7.082426 5.61383,7.012939 9.57412,16.551236 10.18231,24.523864 0.19716,2.584558 0.19936,7.836253 0.004,10.343797 -0.24674,3.172357 -1.50992,8.238452 -2.96461,11.88978 -1.06528,2.673907 -43.72936,87.846378 -44.00348,87.846378 -0.061,0 -2.70338,-5.1263 -5.871924,-11.39177 z M 110.04171,92.944382 c 7.69837,-1.655412 13.61779,-6.657855 16.83789,-14.229552 1.20651,-2.836986 1.35599,-3.657842 1.44103,-7.913898 0.0834,-4.173077 -0.0427,-5.447495 -0.7553,-7.631479 -4.05857,-12.439413 -17.26861,-19.347947 -29.451781,-15.402575 -3.633455,1.17665 -6.916896,3.289856 -9.798519,6.306275 -4.340231,4.54326 -6.450811,9.744661 -6.452597,15.902042 -0.0011,3.664414 0.526473,6.236968 1.937162,9.446684 3.248447,7.391135 9.778134,12.446711 17.750845,13.743505 2.00816,0.326637 6.48657,0.210077 8.49127,-0.221002 z"
       style="fill:#ffffff;stroke-width:0.15551905" />
  </g>
</svg>
