<?xml version="1.0" encoding="UTF-8" standalone="no"?>
<svg
   xmlns:dc="http://purl.org/dc/elements/1.1/"
   xmlns:cc="http://creativecommons.org/ns#"
   xmlns:rdf="http://www.w3.org/1999/02/22-rdf-syntax-ns#"
   xmlns:svg="http://www.w3.org/2000/svg"
   xmlns="http://www.w3.org/2000/svg"
   id="svg8"
   version="1.1"
   viewBox="0 0 161.63625 161.64952"
   height="161.64952mm"
   width="161.63625mm">
  <defs
     id="defs2" />
  <metadata
     id="metadata5">
    <rdf:RDF>
      <cc:Work
         rdf:about="">
        <dc:format>image/svg+xml</dc:format>
        <dc:type
           rdf:resource="http://purl.org/dc/dcmitype/StillImage" />
        <dc:title></dc:title>
      </cc:Work>
    </rdf:RDF>
  </metadata>
  <g
     transform="translate(-21.325471,-16.147303)"
     id="layer1">
    <path
       id="path880"
       d="m 99.479323,177.78731 c -3.13069,-0.15398 -5.08738,-0.30822 -7.243545,-0.57099 -15.606929,-1.90199 -30.277785,-8.32894 -42.349501,-18.55232 -3.287833,-2.78442 -6.656279,-6.15287 -9.440694,-9.4407 -9.583728,-11.31643 -15.856048,-24.96328 -18.148311,-39.48576 -0.71082,-4.50335 -0.971801,-7.93254 -0.971801,-12.76887 0,-4.10388 0.140268,-6.47225 0.600626,-10.14097 1.953488,-15.568125 8.342376,-30.096562 18.519486,-42.113655 2.784415,-3.287833 6.152861,-6.656279 9.440694,-9.440695 12.753569,-10.800827 28.30166,-17.316645 44.910006,-18.820672 2.75129,-0.249154 4.10338,-0.305375 7.344617,-0.305375 3.84443,0 6.46753,0.151682 9.90514,0.572748 15.4094,1.887485 29.89589,8.161982 41.83055,18.117965 11.08413,9.246463 19.51692,21.273548 24.35789,34.73993 2.35867,6.561222 3.86143,13.436334 4.4553,20.383014 0.23073,2.699 0.27193,3.76063 0.27193,7.00771 0,3.24708 -0.0412,4.30872 -0.27193,7.00772 -1.40555,16.44096 -7.82423,32.0285 -18.41822,44.72797 -6.39166,7.66195 -14.15459,14.10238 -22.81334,18.92684 -9.7689,5.44302 -20.47843,8.7697 -31.63578,9.82696 -2.31034,0.21892 -4.1664,0.30651 -6.97403,0.32906 -1.59358,0.0128 -3.109667,0.0128 -3.369087,0 z m 5.929607,-10.1358 c 11.86743,-0.56951 23.04661,-3.94288 33.14423,-10.00139 12.90095,-7.74052 23.13779,-19.58786 28.92139,-33.47144 8.32356,-19.98071 7.00628,-42.911256 -3.54499,-61.709521 -10.03642,-17.880999 -27.21167,-30.539503 -47.12999,-34.735715 -3.18067,-0.670079 -6.26919,-1.091619 -10.21147,-1.393718 -1.48561,-0.113839 -7.408777,-0.113839 -8.894397,0 -3.07111,0.235342 -5.10798,0.476338 -7.546764,0.892917 -10.965057,1.872963 -21.236064,6.270572 -30.177336,12.920661 -12.490192,9.28961 -21.588923,22.410227 -25.849075,37.275086 -1.396572,4.873026 -2.191728,9.4837 -2.608763,15.12677 -0.112311,1.51972 -0.112311,7.30731 0,8.82702 0.219651,2.97222 0.472396,5.11745 0.89311,7.58047 2.463728,14.42365 9.308119,27.63074 19.709718,38.03234 11.887669,11.88767 27.388504,19.08431 44.1304,20.4886 2.7205,0.22819 6.474657,0.29698 9.163937,0.16792 z M 72.998254,140.53814 c -2.020369,-0.54592 -4.773113,-2.19345 -9.568221,-5.7266 -2.451673,-1.80645 -3.229224,-2.4781 -3.870573,-3.34336 -1.378545,-1.85982 -1.501612,-4.30699 -0.401547,-7.98474 0.723525,-2.41889 2.225752,-5.47368 5.102942,-10.37681 4.910799,-8.36872 9.124616,-14.19005 14.996074,-20.71689 4.606355,-5.12052 13.607434,-14.103071 18.640174,-18.601796 3.569607,-3.190835 6.381107,-5.460691 9.740877,-7.864229 4.96301,-3.5505 12.96242,-8.385585 17.34538,-10.484082 1.94514,-0.931306 3.73666,-1.558632 5.42424,-1.899392 2.82376,-0.570166 4.657,-0.321048 6.23282,0.846987 0.86526,0.641349 1.5369,1.418891 3.34335,3.870564 3.66811,4.978276 5.34968,7.834112 5.78904,9.831669 0.27033,1.229006 -0.10118,2.475169 -1.13679,3.813158 -0.79153,1.022656 -3.45458,3.837207 -8.56835,9.055795 -4.59437,4.688556 -5.81497,5.794076 -7.0751,6.408126 -0.99598,0.48532 -1.63495,0.5322 -2.52681,0.18537 -0.64823,-0.25208 -3.01491,-1.81952 -4.51459,-2.98998 -2.68039,-2.091965 -3.74421,-2.836686 -4.84149,-3.389265 -1.19172,-0.600142 -1.83645,-0.741015 -2.90547,-0.634851 -1.82152,0.180894 -2.77969,0.672994 -5.3925,2.769486 -2.2196,1.78099 -5.24655,4.62967 -10.474527,9.85764 -5.22798,5.22799 -8.07666,8.25494 -9.857639,10.47453 -2.089936,2.60465 -2.589165,3.57669 -2.769498,5.3925 -0.106164,1.06902 0.03468,1.71376 0.634852,2.90548 0.552579,1.09728 1.2973,2.16109 3.389273,4.84148 1.18542,1.51886 2.770323,3.91102 3.000152,4.52825 0.33398,0.89695 0.28494,1.5271 -0.19555,2.51316 -0.614499,1.26106 -1.72626,2.48847 -6.408513,7.0751 -5.267092,5.15953 -8.034974,7.77853 -9.0554,8.56835 -1.428506,1.10566 -2.71045,1.44352 -4.076606,1.07435 z"
       style="fill:#ffffff;stroke-width:0.06738185" />
  </g>
</svg>
