<?xml version="1.0" encoding="UTF-8" standalone="no"?>
<svg
   xmlns:dc="http://purl.org/dc/elements/1.1/"
   xmlns:cc="http://creativecommons.org/ns#"
   xmlns:rdf="http://www.w3.org/1999/02/22-rdf-syntax-ns#"
   xmlns:svg="http://www.w3.org/2000/svg"
   xmlns="http://www.w3.org/2000/svg"
   id="svg8"
   version="1.1"
   viewBox="0 0 154.11724 154.23094"
   height="154.23094mm"
   width="154.11723mm">
  <defs
     id="defs2" />
  <metadata
     id="metadata5">
    <rdf:RDF>
      <cc:Work
         rdf:about="">
        <dc:format>image/svg+xml</dc:format>
        <dc:type
           rdf:resource="http://purl.org/dc/dcmitype/StillImage" />
        <dc:title></dc:title>
      </cc:Work>
    </rdf:RDF>
  </metadata>
  <g
     transform="translate(-24.613919,-21.137789)"
     id="layer1">
    <path
       id="path966"
       d="m 27.401561,166.6561 c 1.632796,-4.82624 4.706571,-13.89908 6.830618,-20.16189 l 3.861893,-11.38692 -1.024806,-1.76895 C 28.421085,118.41038 25.304132,100.14285 28.44703,82.80604 31.784247,64.397288 42.086257,47.774891 57.263317,36.310666 67.336844,28.701476 79.475972,23.659783 92.083365,21.849001 c 4.166519,-0.598433 6.053587,-0.719196 11.107305,-0.710815 5.44372,0.009 7.8939,0.20478 12.75043,1.018665 20.32542,3.406246 38.73581,15.329734 50.22401,32.527571 6.83925,10.238352 10.90139,21.499003 12.27587,34.02994 0.38337,3.495053 0.38771,11.613268 0.008,15.015988 -1.02983,9.22947 -3.24882,17.03762 -7.10562,25.00304 -4.18582,8.64494 -9.24418,15.50854 -16.47456,22.35402 -4.7567,4.5035 -11.5968,9.27726 -17.61632,12.29459 -21.34398,10.6988 -46.61969,10.77125 -67.996154,0.19491 l -2.922735,-1.44607 -5.874376,1.86448 c -3.230911,1.02546 -12.574422,3.98986 -20.763364,6.58755 -8.188943,2.5977 -14.973149,4.75124 -15.076019,4.78564 -0.102864,0.0344 1.148893,-3.88618 2.781689,-8.71241 z m 79.334109,-7.28551 c 6.84388,-0.41349 13.35109,-1.83162 19.53687,-4.2577 14.66764,-5.75269 26.67264,-16.65937 33.71835,-30.6335 3.42662,-6.79619 5.42559,-13.50089 6.41199,-21.50631 0.31464,-2.55359 0.26214,-11.499149 -0.0828,-14.101164 C 165.3192,81.321168 163.47633,75.109265 160.34139,68.719158 147.08356,41.69493 116.84155,27.66146 87.513953,34.92437 83.250644,35.980167 78.504152,37.717288 74.754967,39.593901 67.681094,43.13465 61.118552,48.023512 56.164546,53.443112 46.588945,63.918661 41.120559,75.966097 39.59551,89.946451 c -0.313368,2.872701 -0.352664,9.218365 -0.07432,12.002519 1.143212,11.43525 4.963606,21.58277 11.742285,31.18923 0.09771,0.13847 -1.145576,4.01127 -3.82268,11.90754 -2.182125,6.43627 -3.948887,11.71547 -3.926146,11.73155 0.02275,0.0161 5.21705,-1.62188 11.542899,-3.63989 6.325849,-2.01801 11.826499,-3.75407 12.223663,-3.85791 l 0.722121,-0.18879 2.035099,1.22684 c 11.039357,6.65497 23.895455,9.82651 36.697239,9.05305 z m 14.02243,-27.9773 c -3.67937,-0.66143 -12.60047,-3.66098 -17.69677,-5.95019 -8.836387,-3.96924 -17.761182,-11.44368 -25.41916,-21.28836 -1.521309,-1.95571 -3.825842,-5.191154 -5.77948,-8.114076 -2.520884,-3.771609 -4.628138,-8.635599 -5.41709,-12.50378 -0.425754,-2.087466 -0.456183,-5.805472 -0.06524,-7.972234 0.763912,-4.233898 2.689443,-7.807522 5.995099,-11.12641 2.285203,-2.294356 3.250877,-2.61356 7.49706,-2.4782 3.217167,0.10256 3.596521,0.232459 4.485187,1.535815 0.299041,0.438581 1.81477,3.846118 3.368289,7.572306 1.55352,3.726182 3.018097,7.200283 3.254612,7.720213 0.668348,1.46924 0.613397,2.365123 -0.246436,4.017838 -0.732649,1.408245 -1.636672,2.605604 -3.807495,5.042954 -1.557813,1.749081 -1.697275,1.979212 -1.697275,2.800814 0,0.769761 0.395354,1.520175 2.246562,4.26417 4.667447,6.91842 10.073042,12.02023 16.896377,15.94675 1.71868,0.98902 6.66896,3.29377 7.80673,3.63465 0.85479,0.25611 1.64341,0.0516 2.39335,-0.62066 0.76049,-0.68171 4.24087,-4.82789 5.80945,-6.92078 1.20129,-1.60284 1.66672,-1.93281 2.72624,-1.93281 1.26486,0 2.15278,0.3765 11.19976,4.74897 4.65806,2.25128 6.26854,3.10279 6.65672,3.51963 0.50965,0.5473 0.51205,0.55754 0.51205,2.18911 0,2.83816 -0.89845,6.4983 -2.0174,8.21862 -2.0386,3.13422 -7.68396,6.69294 -11.61301,7.3206 -0.58086,0.0928 -1.54942,0.27249 -2.15236,0.39932 -1.35215,0.28444 -3.27106,0.275 -4.93577,-0.0242 z"
       style="fill:#ffffff;stroke-width:0.15755539" />
  </g>
</svg>
